<?xml version="1.0" standalone="no"?><!DOCTYPE svg PUBLIC "-//W3C//DTD SVG 1.1//EN" "http://www.w3.org/Graphics/SVG/1.1/DTD/svg11.dtd"><svg t="1776088839254" class="icon" viewBox="0 0 1024 1024" version="1.1" xmlns="http://www.w3.org/2000/svg" p-id="48952" xmlns:xlink="http://www.w3.org/1999/xlink" width="128" height="128"><path d="M629.12 547.328v-2.56c0.768-56.704 32.256-111.744 80.256-141.568 25.6-16.64 58.752-23.168 80.384-44.672 34.688-31.744 38.784-85.504 15.104-124.928-236.16-405.76-848.64-190.208-780.032 273.92C57.984 725.248 274.304 885.76 493.184 853.504c86.528-11.904 225.792-53.376 189.696-165.504-22.4-46.848-56.96-85.76-53.76-140.672zM233.344 249.856a76.032 76.032 0 1 1-0.0128 152.0768 76.032 76.032 0 0 1 0.0128-152.0768z m-57.472 338.688c-35.584 0-64.384-28.8-64.384-64.384s28.8-64.384 64.384-64.384 64.384 28.8 64.384 64.384-28.8 64.384-64.384 64.384z m129.024 138.752c-31.488 0-56.96-25.472-56.96-56.96s25.472-56.96 56.96-56.96 56.96 25.472 56.96 56.96-25.6 56.96-56.96 56.96zM435.2 280.448c-45.44 0-82.304-36.992-82.304-82.432S389.632 115.712 435.2 115.712s82.304 36.736 82.304 82.304-36.736 82.432-82.304 82.432zM1002.752 505.6l-116.096 292.992c-5.248 13.184-20.608 19.328-33.536 13.184l-68.608-32.64a24.6528 24.6528 0 0 1-10.88-34.304l154.24-274.816a24.832 24.832 0 0 1 32.128-10.24l30.464 14.464c11.648 5.632 17.024 19.2 12.288 31.36zM835.968 909.056c-25.856 57.344-104.96 85.76-136.32 95.104a7.616 7.616 0 0 1-9.472-9.344c6.784-24.832 20.736-80.64 24.448-127.488 4.096-51.84 59.008-59.264 91.136-44.032s44.288 52.992 30.336 85.76z" fill="#E77277" p-id="48953"></path></svg>