<?xml version="1.0" standalone="no"?><!DOCTYPE svg PUBLIC "-//W3C//DTD SVG 1.1//EN" "http://www.w3.org/Graphics/SVG/1.1/DTD/svg11.dtd"><svg t="1776088926489" class="icon" viewBox="0 0 1024 1024" version="1.1" xmlns="http://www.w3.org/2000/svg" p-id="51802" xmlns:xlink="http://www.w3.org/1999/xlink" width="128" height="128"><path d="M511.511916 1024c282.112488 0 511.511916-229.399428 511.511916-511.511916s-229.399428-511.511916-511.511916-511.511916-511.511916 229.399428-511.511916 511.511916 229.399428 511.511916 511.511916 511.511916" fill="#71C12A" p-id="51803"></path><path d="M667.698761 236.232602h-310.421354c-39.046711 0-71.260248 32.213537-71.260248 71.260248v408.038132c0 39.046711 32.213537 71.260248 71.260248 71.260248h310.421354c39.046711 0 71.260248-32.213537 71.260248-71.260248v-408.038132c0-39.046711-32.213537-71.260248-71.260248-71.260248z m49.784556 480.274548c0 27.332698-22.451859 49.784557-49.784556 49.784556h-310.421354c-27.332698 0-49.784557-22.451859-49.784557-49.784556v-408.038132c0-27.332698 22.451859-49.784557 49.784557-49.784557h41.975215V441.227836l58.570066-45.879886 45.879886 36.118208v-172.781697h164.972355c27.332698 0 49.784557 22.451859 49.784556 49.784557v408.038132z" fill="#FFFFFF" p-id="51804"></path><path d="M667.698761 792.648236h-310.421354c-41.975214 0-76.141087-34.165872-76.141087-76.141086v-408.038132c0-41.975214 34.165872-76.141087 76.141087-76.141087h310.421354c41.975214 0 76.141087 34.165872 76.141086 76.141087v408.038132c0 41.975214-34.165872 76.141087-76.141086 76.141086z m-311.397522-551.534795c-37.094376 0-66.379409 30.261201-66.379409 66.379409v408.038132c0 37.094376 30.261201 66.379409 66.379409 66.379409h310.421354c37.094376 0 66.379409-30.261201 66.379409-66.379409v-408.038132c0-37.094376-30.261201-66.379409-66.379409-66.379409h-310.421354z m311.397522 530.059104h-310.421354c-30.261201 0-54.665396-24.404194-54.665396-54.665395v-408.038132c0-30.261201 24.404194-54.665396 54.665396-54.665396h46.856053v176.686368l53.689228-41.975214 40.999047 32.213537v-167.900858h169.853194c30.261201 0 54.665396 24.404194 54.665395 54.665395v408.038132c-0.976168 30.261201-25.380362 55.641563-55.641563 55.641563z m-311.397522-508.583412c-24.404194 0-44.903718 20.499523-44.903718 44.903717v408.038132c0 24.404194 20.499523 44.903718 44.903718 44.903718h310.421354c24.404194 0 44.903718-20.499523 44.903718-44.903718v-408.038132c0-24.404194-20.499523-44.903718-44.903718-44.903717h-160.091516v177.662535l-50.760724-40.022879-63.450906 49.784557v-187.424213h-36.118208z" fill="#FFFFFF" p-id="51805"></path><path d="M616.938036 413.895138h-209.876072c-5.857007 0-10.737846 4.880839-10.737846 10.737846 0 5.857007 4.880839 10.737846 10.737846 10.737845h209.876072c5.857007 0 10.737846-4.880839 10.737846-10.737845 0-5.857007-4.880839-10.737846-10.737846-10.737846z m0 86.878933h-209.876072c-5.857007 0-10.737846 4.880839-10.737846 10.737845s4.880839 10.737846 10.737846 10.737846h209.876072c5.857007 0 10.737846-4.880839 10.737846-10.737846s-4.880839-10.737846-10.737846-10.737845z m0 87.8551h-209.876072c-5.857007 0-10.737846 4.880839-10.737846 10.737845s4.880839 10.737846 10.737846 10.737846h209.876072c5.857007 0 10.737846-4.880839 10.737846-10.737846s-4.880839-10.737846-10.737846-10.737845z" fill="#FFFFFF" p-id="51806"></path></svg>