<?xml version="1.0" standalone="no"?><!DOCTYPE svg PUBLIC "-//W3C//DTD SVG 1.1//EN" "http://www.w3.org/Graphics/SVG/1.1/DTD/svg11.dtd"><svg t="1776089049655" class="icon" viewBox="0 0 1228 1024" version="1.1" xmlns="http://www.w3.org/2000/svg" p-id="56351" xmlns:xlink="http://www.w3.org/1999/xlink" width="153.5" height="128"><path d="M71.850825 0.000171h926.037179a71.850655 71.850655 0 0 1 71.850655 71.850654 72.021321 72.021321 0 0 1-71.850655 71.850655H71.850825A71.850655 71.850655 0 0 1 0.000171 71.850825 71.679988 71.679988 0 0 1 71.850825 0.000171z" fill="#FF5383" p-id="56352"></path><path d="M95.744155 0.000171m136.53331 0l589.141235 0q136.533311 0 136.533311 136.53331l0 589.141235q0 136.533311-136.533311 136.533311l-589.141235 0q-136.533311 0-136.53331-136.533311l0-589.141235q0-136.533311 136.53331-136.53331Z" fill="#FF5383" p-id="56353"></path><path d="M207.530803 259.072127m39.935993 0l415.061264 0q39.935993 0 39.935994 39.935994l0 0q0 39.935993-39.935994 39.935993l-415.061264 0q-39.935993 0-39.935993-39.935993l0 0q0-39.935993 39.935993-39.935994Z" fill="#FFFFFF" p-id="56354"></path><path d="M207.530803 466.60276m39.935993 0l271.359955 0q39.935993 0 39.935993 39.935993l0 0q0 39.935993-39.935993 39.935993l-271.359955 0q-39.935993 0-39.935993-39.935993l0 0q0-39.935993 39.935993-39.935993Z" fill="#FFFFFF" p-id="56355"></path><path d="M878.933358 674.133392m-349.866609 0a349.866608 349.866608 0 1 0 699.733217 0 349.866608 349.866608 0 1 0-699.733217 0Z" fill="#FFA3BE" p-id="56356"></path><path d="M978.602674 518.826751a98.815984 98.815984 0 0 1 32.767995 78.506653 105.301316 105.301316 0 0 1-20.650663 66.559989 610.645232 610.645232 0 0 1-45.909326 42.66666A86.869319 86.869319 0 0 0 921.600017 733.866715a71.850655 71.850655 0 0 0-8.874665 36.010661v9.386665h-58.026657v-9.386665a108.373315 108.373315 0 0 1 10.922665-51.199992 271.530621 271.530621 0 0 1 61.781323-68.266655l9.215998-10.239998a64.170656 64.170656 0 0 0 15.359998-39.935994 61.95199 61.95199 0 0 0-15.871998-44.714659 63.487989 63.487989 0 0 0-46.421325-17.066664A60.757323 60.757323 0 0 0 836.266698 563.200077a92.330651 92.330651 0 0 0-14.677331 55.80799h-57.514657a119.466647 119.466647 0 0 1 129.365312-128.853311 122.197313 122.197313 0 0 1 85.162652 28.671995z m-66.047989 301.397283a36.351994 36.351994 0 0 1 11.434665 27.989329 38.57066 38.57066 0 0 1-11.946665 28.330662 40.61866 40.61866 0 0 1-28.330662 10.922664 39.08266 39.08266 0 0 1-28.501328-11.434664 37.717327 37.717327 0 0 1-11.434665-27.818662 36.351994 36.351994 0 0 1 11.434665-27.989329 43.007993 43.007993 0 0 1 57.34399 0z" fill="#FFFFFF" p-id="56357"></path></svg>