<?xml version="1.0" standalone="no"?><!DOCTYPE svg PUBLIC "-//W3C//DTD SVG 1.1//EN" "http://www.w3.org/Graphics/SVG/1.1/DTD/svg11.dtd"><svg t="1776088700737" class="icon" viewBox="0 0 1024 1024" version="1.1" xmlns="http://www.w3.org/2000/svg" p-id="43386" xmlns:xlink="http://www.w3.org/1999/xlink" width="128" height="128"><path d="M0 512C0 229.216 229.216 0 512 0s512 229.216 512 512-229.216 512-512 512S0 794.784 0 512z" fill="#DA5B0B" p-id="43387"></path><path d="M224 224h576v576H224z" fill="#DA5B0B" p-id="43388"></path><path d="M499.68 601.152A89.984 89.984 0 0 1 512 421.984c44.32 0 81.12 32 88.64 74.144 1.184 6.752 7.104 11.712 13.952 11.712h133.76a16 16 0 0 0 16-16v-1.92c0-18.88-15.328-34.176-34.144-34.176-30.4 0-45.632-36.736-24.16-58.24a29.12 29.12 0 0 0 3.2-45.024l-34.528-34.56a34.112 34.112 0 0 0-48.256 0c-21.472 21.504-58.24 6.304-58.24-24.064 0-18.848-15.264-34.144-34.112-34.144h-44.288c-18.816 0-34.144 15.296-34.144 34.144 0 30.4-36.704 45.632-58.208 24.128a34.112 34.112 0 0 0-48.256 0l-34.496 34.496a29.12 29.12 0 0 0 3.2 45.056c21.504 21.472 6.272 58.24-24.128 58.24-18.816 0-34.144 15.264-34.144 34.112v44.288c0 18.816 15.328 34.144 34.144 34.144 30.4 0 45.632 36.704 24.16 58.208a34.112 34.112 0 0 0 0 48.256l31.264 31.264a34.112 34.112 0 0 0 48.256 0c21.504-21.472 58.24-6.24 58.24 24.16 0 18.816 15.296 34.144 34.112 34.144h6.176a16 16 0 0 0 16-16v-133.088a14.24 14.24 0 0 0-12.32-14.08z" fill="#FFFFFF" p-id="43389"></path><path d="M496 758.08v6.272h-6.144v-6.272h6.144z m9.76-9.728v-133.088a8 8 0 0 0-6.912-7.904 96.224 96.224 0 0 1-83.104-96.096l0.16-4.896A96.512 96.512 0 0 1 512 415.744a96.32 96.32 0 0 1 94.784 79.296h0.032c0.64 3.776 3.936 6.56 7.776 6.56v6.24l-2.528-0.224a14.208 14.208 0 0 1-11.392-11.52 90.144 90.144 0 0 0-80.448-73.728L512 422.016a90.24 90.24 0 0 0-89.984 89.28l0.32 8.512a90.016 90.016 0 0 0 77.344 81.344c7.04 0.96 12.32 6.976 12.32 14.112v133.088l-0.32 3.2a16 16 0 0 1-15.68 12.8v-6.272a9.76 9.76 0 0 0 9.76-9.728z m242.56-246.752v6.24h-133.728v-6.24h133.76z m9.792-9.76v-1.92a27.936 27.936 0 0 0-27.904-27.936c-35.936 0-53.984-43.424-28.576-68.864l0.32-0.32 0.384-0.256c12.096-9.088 13.216-24.96 2.528-35.648l-34.56-34.56a27.904 27.904 0 0 0-39.424 0c-25.408 25.408-68.864 7.488-68.864-28.48a27.936 27.936 0 0 0-27.904-27.872h-44.256a27.936 27.936 0 0 0-27.904 27.904c0 35.904-43.456 53.952-68.896 28.512a27.904 27.904 0 0 0-39.424 0l-34.464 34.496c-10.048 10.048-9.696 24.608 0.384 33.856l2.144 1.792 0.32 0.224 0.32 0.352c25.44 25.44 7.424 68.864-28.512 68.864a27.936 27.936 0 0 0-27.904 27.936v44.224c0 15.392 12.48 27.904 27.904 27.904 35.936 0 53.952 43.456 28.512 68.896a27.872 27.872 0 0 0 0 39.424l31.296 31.296c10.88 10.88 28.544 10.88 39.424 0 25.44-25.44 68.896-7.424 68.896 28.512 0 15.392 12.48 27.904 27.904 27.904v6.272l-3.52-0.192a34.176 34.176 0 0 1-30.656-33.984c0-30.368-36.736-45.6-58.208-24.128-12.48 12.48-32.256 13.28-45.664 2.368l-2.56-2.368-31.296-31.264a34.112 34.112 0 0 1-2.336-45.664l2.336-2.56c20.16-20.16 8-53.728-18.624-57.824l-5.504-0.416a34.176 34.176 0 0 1-34.176-34.176V489.92c0-17.696 13.44-32.224 30.656-33.984l3.52-0.192c30.368 0 45.6-36.736 24.128-58.24a29.12 29.12 0 0 1-3.2-45.024l34.464-34.496a34.112 34.112 0 0 1 48.256 0c20.16 20.16 53.696 8 57.824-18.624l0.384-5.472c0-17.664 13.44-32.224 30.656-33.984l3.52-0.192h44.256c18.816 0 34.144 15.328 34.144 34.176l0.416 5.472c3.84 24.864 33.312 37.056 53.6 22.176l4.192-3.584a34.112 34.112 0 0 1 48.256 0l34.56 34.528a29.12 29.12 0 0 1-3.2 45.056c-21.504 21.472-6.272 58.24 24.128 58.24 18.816 0 34.144 15.296 34.144 34.144v1.92l-0.32 3.2a16 16 0 0 1-15.68 12.8v-6.24a9.76 9.76 0 0 0 9.76-9.76z" fill="#FFFFFF" p-id="43390"></path><path d="M695.616 718.24a96 96 0 1 1 22.624-22.624l45.056 45.088a16 16 0 0 1-22.624 22.624l-45.056-45.088zM640 704a64 64 0 1 0 0-128 64 64 0 0 0 0 128z" fill="#FFFFFF" p-id="43391"></path><path d="M635.648 536.096a104 104 0 0 1 107.52 90.88 103.936 103.936 0 0 1-14.72 67.52l40.64 40.64a24.064 24.064 0 0 1-17.088 40.672 24 24 0 0 1-16.864-6.72l-40.64-40.64a103.904 103.904 0 0 1-67.52 14.72 104 104 0 0 1 8.672-207.072z m0.64 15.968a88 88 0 1 0 54.72 159.68l5.504-3.936 49.728 49.76 1.216 0.96a8 8 0 0 0 10.048-12.288l-49.696-49.728 3.904-5.504a88.064 88.064 0 0 0-75.392-138.944zM696 640a56 56 0 1 0-112 0 56 56 0 0 0 112 0z m16 0a72 72 0 1 1-144.032-0.032A72 72 0 0 1 712 640z" fill="#FFFFFF" p-id="43392"></path></svg>