<?xml version="1.0" standalone="no"?><!DOCTYPE svg PUBLIC "-//W3C//DTD SVG 1.1//EN" "http://www.w3.org/Graphics/SVG/1.1/DTD/svg11.dtd"><svg t="1777435710618" class="icon" viewBox="0 0 1024 1024" version="1.1" xmlns="http://www.w3.org/2000/svg" p-id="5245" xmlns:xlink="http://www.w3.org/1999/xlink" width="128" height="128"><path d="M181.333333 113.066667c4.266667-0.533333 9.066667-0.533333 12.8 1.6 5.866667 3.733333 10.666667 8.533333 16 13.333333 76.266667 69.866667 153.066667 139.2 229.333334 209.066667 5.333333 4.8 10.133333 9.6 16.533333 12.8 4.8 2.133333 10.666667 1.066667 16 0.533333 13.866667-2.133333 28.266667-2.666667 42.133333-2.666667 13.866667 0 27.2 0.533333 41.066667 2.666667 5.333333 0.533333 11.733333 2.133333 16-2.133333l252.8-230.4c6.933333-7.466667 18.133333-5.866667 27.2-4.8 23.466667 3.733333 46.933333 5.333333 70.933333 8 3.733333 0.533333 9.6 1.066667 10.666667 5.866666 1.6 8 1.066667 16.533333 1.066667 24.533334v498.666666c0 8.533333 0.533333 17.066667-0.533334 25.066667-0.533333 3.2-0.533333 6.4-3.2 8.533333-5.333333 2.133333-11.2 3.2-16.533333 4.266667-23.466667 5.333333-47.466667 9.6-70.933333 15.466667-11.733333 3.2-24 2.133333-35.733334 2.133333-6.4 0-12.266667 0.533333-18.666666-0.533333-3.733333-0.533333-6.4-3.733333-6.4-6.933334-1.066667-8.533333-0.533333-16.533333-0.533334-25.066666v-245.333334c0-8 0.533333-16-0.533333-24.533333-1.6-9.066667-11.2-16-20.266667-14.4-4.8 0-9.6 3.2-12.8 6.4-40.533333 37.333333-81.6 74.133333-122.133333 111.466667-4.8 4.266667-10.133333 8.533333-16.533333 8-8.533333-0.533333-17.066667-3.733333-25.066667-5.866667-33.6-8.533333-68.8-9.6-103.466667-6.4-16.533333 2.133333-33.6 4.266667-50.133333 9.6-5.333333 1.6-10.666667 3.2-16 2.666667-5.333333-0.533333-9.6-4.266667-13.866667-7.466667-40.533333-36.8-81.066667-73.6-121.066666-110.4-3.733333-3.2-8-6.933333-13.333334-8-6.4-1.066667-13.333333 2.133333-18.133333 6.933333-3.733333 4.266667-4.266667 10.666667-4.266667 16.533334v278.933333c0 3.733333 0 7.466667-1.6 10.666667-2.133333 3.733333-6.933333 4.266667-11.2 4.266666h-31.466666c-11.733333 0-22.933333-3.2-34.666667-5.866666-20.8-4.8-41.6-9.066667-62.4-13.866667-4.266667-1.066667-10.666667-2.666667-11.2-8-1.066667-9.6-0.533333-19.2-0.533333-28.8V152.533333c0-8-0.533333-15.466667 0.533333-23.466666 0.533333-2.666667 1.066667-6.4 3.733333-7.466667 2.666667-1.066667 6.4-1.6 9.6-2.133333 24.533333-0.533333 50.666667-3.733333 76.8-6.4z m314.133334 610.666666c11.733333-1.066667 24-0.533333 35.733333 0 9.066667 0 14.933333 11.2 10.666667 18.666667-5.333333 10.133333-10.666667 20.266667-16.533334 30.4-3.733333 6.933333-14.933333 8.533333-20.266666 2.133333-4.8-5.866667-7.466667-13.333333-11.733334-19.733333-2.666667-5.333333-6.933333-10.666667-8-17.066667-1.6-6.933333 3.2-13.866667 10.133334-14.4z m-397.866667 21.333334c2.133333-0.533333 4.8-0.533333 6.933333-0.533334h196.8c5.866667 0 12.8 1.6 16 6.933334 3.733333 5.866667 2.666667 15.466667-3.2 19.2-4.266667 2.666667-9.6 2.666667-14.4 3.2H104.533333c-3.733333 0-7.466667 0-10.666666-1.6-5.866667-2.133333-9.6-8.533333-8.533334-14.4 0.533333-6.4 5.866667-12.266667 12.266667-12.8z m619.733333 0c8.533333-1.066667 17.6 0 26.666667-0.533334h175.466667c3.733333 0 7.466667 0 11.2 1.6 5.333333 2.133333 8 8 8 13.333334 0 6.4-5.333333 12.8-11.733334 13.333333-8.533333 1.066667-16.533333 0.533333-25.066666 0.533333h-161.6c-8 0-16.533333 0.533333-24.533334-0.533333-6.4-1.066667-11.2-6.933333-10.666666-13.333333-1.6-7.466667 4.8-13.866667 12.266666-14.4zM298.666667 814.933333c4.266667-1.066667 9.066667-1.6 13.333333 0.533334 8.533333 3.733333 10.666667 17.6 2.666667 23.466666-4.8 3.2-10.133333 4.266667-15.466667 6.4-19.2 5.866667-38.4 13.866667-57.6 19.733334-22.4 6.933333-44.266667 15.466667-66.666667 22.933333-16 5.333333-32.533333 10.666667-48.533333 16.533333-6.933333 2.133333-13.333333 5.333333-20.266667 6.933334-4.266667 1.066667-9.066667 0-12.266666-2.666667-5.333333-4.266667-6.4-12.8-3.2-18.666667 2.666667-4.266667 7.466667-5.866667 12.266666-7.466666 13.866667-4.8 27.733333-10.133333 41.6-14.4 35.2-11.2 69.866667-24.533333 105.066667-35.733334 16.533333-5.866667 32.533333-12.266667 49.066667-17.6z m416.533333-0.533333c4.8-1.066667 10.133333 0.533333 14.933333 2.133333 15.466667 5.333333 30.4 11.2 45.866667 16 36.266667 11.2 72 25.066667 108.266667 36.8 11.733333 3.733333 23.466667 8 35.733333 12.266667 4.266667 1.6 9.6 3.2 12.8 6.933333 5.333333 6.933333 2.133333 18.666667-6.4 21.866667-5.333333 2.133333-11.2 0-16.533333-1.6-21.333333-8-43.2-14.933333-65.066667-22.4-21.333333-7.466667-42.133333-14.933333-64-21.866667-19.2-6.4-38.4-13.866667-57.6-19.733333-5.333333-1.6-10.666667-3.2-14.933333-6.933333-7.466667-6.933333-3.2-21.866667 6.933333-23.466667z" p-id="5246" fill="#f1f5f9"></path></svg>