<?xml version="1.0" standalone="no"?><!DOCTYPE svg PUBLIC "-//W3C//DTD SVG 1.1//EN" "http://www.w3.org/Graphics/SVG/1.1/DTD/svg11.dtd"><svg t="1777452208826" class="icon" viewBox="0 0 1024 1024" version="1.1" xmlns="http://www.w3.org/2000/svg" p-id="8329" xmlns:xlink="http://www.w3.org/1999/xlink" width="128" height="128"><path d="M512 0C363.488 0 188.832 35.328 39.712 112.128l-23.264 11.904v26.272c0 158.336 3.04 580.832 473.632 860.544l21.888 13.152 21.888-13.152c470.624-279.712 473.6-702.208 473.6-860.576v-25.952l-22.944-12.032C837.184 35.2 660.512 0 511.968 0z m0 85.856c127.072 0 280.928 32.544 408.576 93.728-0.352 165.888-17.824 492.512-408.576 739.424C121.248 672.096 103.712 345.472 103.424 179.584 232.96 118.176 384.928 85.856 512 85.856z m214.816 237.44c-11.104 0.352-20.64 7.392-26.016 12.768l-229.536 238.08-85.856-102.944c-40.736-47.2-96.512-10.72-109.408-2.144l199.552 231.68 272.416-368.992a29.792 29.792 0 0 0-20.832-8.448h-0.352 0.032z" fill="#66B574" p-id="8330"></path></svg>