<?xml version="1.0" standalone="no"?><!DOCTYPE svg PUBLIC "-//W3C//DTD SVG 1.1//EN" "http://www.w3.org/Graphics/SVG/1.1/DTD/svg11.dtd"><svg t="1776087636408" class="icon" viewBox="0 0 1024 1024" version="1.1" xmlns="http://www.w3.org/2000/svg" p-id="11865" xmlns:xlink="http://www.w3.org/1999/xlink" width="128" height="128"><path d="M512 512m-512 0a512 512 0 1 0 1024 0 512 512 0 1 0-1024 0Z" fill="#FF9828" p-id="11866"></path><path d="M560.030118 207.058824h-93.684706c-38.802824 0-70.260706 31.510588-70.260706 70.369882 0 38.859294 31.457882 70.369882 70.260706 70.369882h93.684706c38.799059 0 70.260706-31.510588 70.260706-70.366117 0-38.863059-31.461647-70.373647-70.260706-70.373647z m0 93.827764h-93.684706a23.510588 23.510588 0 0 1-23.424-23.454117 23.510588 23.510588 0 0 1 23.424-23.457883h93.684706a23.510588 23.510588 0 0 1 23.41647 23.454118 23.510588 23.510588 0 0 1-23.41647 23.457882z m0 140.739765h-93.684706c-38.802824 0-70.260706 31.510588-70.260706 70.373647 0 38.859294 31.457882 70.366118 70.260706 70.366118h93.684706c38.799059 0 70.260706-31.506824 70.260706-70.366118s-31.461647-70.373647-70.260706-70.373647z m0 93.831529h-93.684706A23.510588 23.510588 0 0 1 442.917647 512a23.510588 23.510588 0 0 1 23.424-23.457882h93.684706a23.510588 23.510588 0 0 1 23.416471 23.454117 23.510588 23.510588 0 0 1-23.416471 23.461647z m0 140.739765h-93.684706c-38.802824 0-70.260706 31.510588-70.260706 70.369882 0 38.859294 31.457882 70.373647 70.260706 70.373647h93.684706c38.799059 0 70.260706-31.510588 70.260706-70.373647 0-38.859294-31.461647-70.369882-70.260706-70.369882z m0 93.827765h-93.684706a23.510588 23.510588 0 0 1-23.424-23.454118 23.510588 23.510588 0 0 1 23.424-23.457882h93.684706a23.510588 23.510588 0 0 1 23.41647 23.454117 23.510588 23.510588 0 0 1-23.41647 23.457883z m-257.626353-46.912c-25.061647 0-48.557176-9.776941-66.281412-27.444706-17.645176-17.750588-27.399529-41.287529-27.399529-66.386824s9.750588-48.632471 27.399529-66.379294c17.724235-17.754353 41.219765-27.444706 66.281412-27.444706h46.84047v-46.915764H302.403765C224.805647 488.542118 161.882353 551.555765 161.882353 629.278118c0 77.718588 62.915765 140.743529 140.521412 140.743529v46.915765l70.260706-70.373647-70.260706-70.373647v46.923294zM723.968 253.967059h-46.832941v46.915765h46.832941c25.061647 0 48.564706 9.773176 66.285176 27.440941 17.716706 17.750588 27.399529 41.283765 27.39953 66.383059s-9.758118 48.632471-27.39953 66.386823c-17.720471 17.671529-41.223529 27.437176-66.285176 27.437177v-46.908236L653.711059 512l70.256941 70.366118v-46.908236c77.601882 0 140.528941-63.024941 140.528941-140.743529 0-77.722353-62.923294-140.739765-140.528941-140.739765v-0.007529z" fill="#FFFFFF" p-id="11867"></path></svg>