<?xml version="1.0" standalone="no"?><!DOCTYPE svg PUBLIC "-//W3C//DTD SVG 1.1//EN" "http://www.w3.org/Graphics/SVG/1.1/DTD/svg11.dtd"><svg t="1776087800728" class="icon" viewBox="0 0 1024 1024" version="1.1" xmlns="http://www.w3.org/2000/svg" p-id="16603" xmlns:xlink="http://www.w3.org/1999/xlink" width="128" height="128"><path d="M512.072155 1023.936007a511.941767 511.941767 0 1 1 361.910833-149.902948A507.878229 507.878229 0 0 1 512.072155 1023.936007z m-159.981802-287.967243a15.99818 15.99818 0 1 0 0 31.99636h383.956325a15.99818 15.99818 0 0 0 0-31.99636z m126.673591-366.966258l-143.727651 142.287815a73.8476 73.8476 0 0 0-24.445219 38.395632c-5.567367 15.64622-10.302828 29.116688-14.942301 42.331185l-5.695352 16.254151-6.399272 17.917962c-2.687694 8.031086-5.631359 16.542118-9.246948 26.716961a22.397452 22.397452 0 0 0 3.935552 26.301008 21.853514 21.853514 0 0 0 14.942301 5.535371 26.748957 26.748957 0 0 0 9.598908-1.695808l4.863447-1.823792 2.751687-1.023884c2.495716-0.959891 4.991432-1.919782 7.551141-2.847676h0.447949l3.871559-1.40784 14.430359-5.375388h0.255971l6.399272-2.335734 8.319053-3.199636 8.671014-3.199637c8.862992-3.199636 20.125711-7.391159 32.668284-12.094624 3.935552-1.247858 7.615134-2.623702 12.382592-4.415497l1.31185-0.575935 3.807567-1.40784 0.991887-0.447949h0.447949a76.151338 76.151338 0 0 0 38.107666-25.597088l39.675487-40.955342c33.692168-34.588066 64.248692-66.168473 92.245507-95.125179l4.863446-4.83145z m42.235196-41.819243l-31.004473 30.68451 108.115701 107.219803 31.004474-30.716506z m91.189627-71.287891a46.650693 46.650693 0 0 0-32.988248 13.502464l-47.066646 46.650693 108.179695 107.219804 47.066646-46.650693a46.586701 46.586701 0 0 0 13.694442-32.700281 45.850784 45.850784 0 0 0-13.694442-32.70028l-42.171203-41.819243A46.650693 46.650693 0 0 0 612.188767 256.023357z" fill="#6582FF" p-id="16604"></path></svg>