<?xml version="1.0" standalone="no"?><!DOCTYPE svg PUBLIC "-//W3C//DTD SVG 1.1//EN" "http://www.w3.org/Graphics/SVG/1.1/DTD/svg11.dtd"><svg t="1776087474816" class="icon" viewBox="0 0 1024 1024" version="1.1" xmlns="http://www.w3.org/2000/svg" p-id="4989" xmlns:xlink="http://www.w3.org/1999/xlink" width="128" height="128"><path d="M512 0a512 512 0 1 0 0.073143 1024.073143A512 512 0 0 0 512 0z m-5.12 203.776a76.8 76.8 0 1 1 0 153.6 76.8 76.8 0 0 1 0-153.6z m133.12 614.4h-256v-38.4l32.036571-13.531429c17.993143-7.533714 29.915429-27.209143 29.915429-49.005714V510.317714c0-21.869714-11.922286-41.472-29.915429-49.005714l-32.036571-13.531429v-39.204571h194.048v308.662857c0 21.796571 11.922286 41.472 29.915429 49.005714l32.036571 13.531429v38.4z" fill="#FD6868" p-id="4990"></path></svg>