<?xml version="1.0" standalone="no"?><!DOCTYPE svg PUBLIC "-//W3C//DTD SVG 1.1//EN" "http://www.w3.org/Graphics/SVG/1.1/DTD/svg11.dtd"><svg t="1776088559251" class="icon" viewBox="0 0 1024 1024" version="1.1" xmlns="http://www.w3.org/2000/svg" p-id="38563" xmlns:xlink="http://www.w3.org/1999/xlink" width="128" height="128"><path d="M512 512m-460.8 0a460.8 460.8 0 1 0 921.6 0 460.8 460.8 0 1 0-921.6 0Z" fill="#F9D67A" p-id="38564"></path><path d="M634.88 409.6m-230.4 0a230.4 230.4 0 1 0 460.8 0 230.4 230.4 0 1 0-460.8 0Z" fill="#F48433" p-id="38565"></path><path d="M634.88 645.12c-129.8432 0-235.52-105.6768-235.52-235.52s105.6768-235.52 235.52-235.52 235.52 105.6768 235.52 235.52-105.6768 235.52-235.52 235.52z m0-460.8c-124.2112 0-225.28 101.0688-225.28 225.28s101.0688 225.28 225.28 225.28 225.28-101.0688 225.28-225.28-101.0688-225.28-225.28-225.28z" fill="#413D2C" p-id="38566"></path><path d="M651.2128 519.0656c-1.2288 0-2.4576 0.1024-3.6864 0.2048-6.9632-38.7584-39.424-68.608-79.4112-71.5264 0.1536-2.3552 0.2048-4.6592 0.2048-7.0656C568.32 372.5824 513.1776 317.44 445.1328 317.44c-54.8864 0-101.3248 35.8912-117.2992 85.4528-2.7136-0.2048-5.4272-0.3584-8.1408-0.3584-58.1632 0-105.2672 47.1552-105.2672 105.2672 0 3.7888 0.2048 7.5776 0.6144 11.264-32.6656 0.8704-58.8288 27.5456-58.8288 60.416 0 32.6656 25.9072 59.1872 58.2656 60.3648v0.1536h434.5856v-0.1024c0.768 0.0512 1.4848 0.1024 2.2528 0.1024 33.3824 0 60.4672-27.0848 60.4672-60.4672-0.1024-33.4336-27.1872-60.4672-60.5696-60.4672z" fill="#FFFFFF" p-id="38567"></path><path d="M651.2128 645.12c-0.3072 0-0.6656 0-0.9728-0.0512l-1.28 0.0512H209.3056v-0.4608a65.34144 65.34144 0 0 1-58.2656-65.1264c0-33.9456 25.2416-61.5936 58.4192-65.1776-0.1536-2.2016-0.2048-4.352-0.2048-6.5024 0-60.8768 49.5104-110.3872 110.3872-110.3872 1.536 0 3.0208 0.0512 4.5568 0.1024A128.01024 128.01024 0 0 1 445.1328 312.32C515.8912 312.32 573.44 369.8688 573.44 440.6272v2.4576c38.3488 4.9152 69.5808 33.1776 78.2336 70.8608 35.9424 0.256 65.1264 29.5936 65.1264 65.5872 0 36.1472-29.44 65.5872-65.5872 65.5872z m-7.3728-10.4448l6.3488 0.1536c0.3584 0 0.6656 0.0512 1.024 0.0512 30.5152 0 55.3472-24.832 55.3472-55.3472s-24.832-55.3472-55.3472-55.3472c-0.8192 0-1.6384 0.0512-2.4576 0.1024l-5.4784 0.3584-0.8192-4.5056a82.01216 82.01216 0 0 0-74.752-67.328l-5.0176-0.3584 0.3072-5.0176c0.1536-2.2528 0.2048-4.5056 0.2048-6.7584C563.2 375.552 510.208 322.56 445.1328 322.56c-51.5072 0-96.6656 32.9216-112.4352 81.92l-1.2288 3.84-4.0448-0.3072c-2.56-0.2048-5.12-0.3072-7.7312-0.3072-55.2448 0-100.1472 44.9536-100.1472 100.1472 0 3.5328 0.2048 7.1168 0.5632 10.752l0.6144 5.5296-5.5296 0.1536c-30.208 0.8192-53.8624 25.088-53.8624 55.296 0 29.9008 23.3984 54.1696 53.2992 55.2448l3.072 0.1024h426.1888v-0.256z" fill="#413D2C" p-id="38568"></path><path d="M485.12 762.88c0 28.2624-22.9376 51.2-51.2 51.2s-51.2-22.9376-51.2-51.2c0-40.96 51.2-66.56 51.2-66.56s51.2 30.72 51.2 66.56z" fill="#6295CC" p-id="38569"></path><path d="M433.92 819.2c-31.0784 0-56.32-25.2416-56.32-56.32 0-43.6224 51.8144-70.0416 54.016-71.1168l2.5088-1.28 2.4064 1.4336c2.2016 1.3312 53.7088 32.6656 53.7088 70.9632 0 31.0784-25.2416 56.32-56.32 56.32z m-0.2048-116.9408c-9.9328 5.632-45.8752 28.3136-45.8752 60.6208 0 25.3952 20.6848 46.08 46.08 46.08s46.08-20.6848 46.08-46.08c0-28.2624-36.4544-54.1184-46.2848-60.6208z" fill="#413D2C" p-id="38570"></path><path d="M625.3568 760.8832c0 20.8896-16.9472 37.8368-37.8368 37.8368s-37.8368-16.9472-37.8368-37.8368c0-30.2592 37.8368-49.2032 37.8368-49.2032s37.8368 22.6816 37.8368 49.2032z" fill="#6295CC" p-id="38571"></path><path d="M587.52 803.84c-23.7056 0-42.9568-19.2512-42.9568-42.9568 0-33.0752 39.0144-52.9408 40.6528-53.76l2.5088-1.28 2.4064 1.4336c1.6384 0.9728 40.3456 24.5248 40.3456 53.6064 0 23.7056-19.2512 42.9568-42.9568 42.9568z m-0.1536-86.2208c-7.9872 4.6592-32.5632 20.7872-32.5632 43.264 0 18.0224 14.6944 32.7168 32.7168 32.7168s32.7168-14.6944 32.7168-32.7168c0-17.92-21.8112-35.9936-32.8704-43.264z" fill="#413D2C" p-id="38572"></path><path d="M318.1568 760.8832c0 20.8896-16.9472 37.8368-37.8368 37.8368s-37.8368-16.9472-37.8368-37.8368c0-30.2592 37.8368-49.2032 37.8368-49.2032s37.8368 22.6816 37.8368 49.2032z" fill="#6295CC" p-id="38573"></path><path d="M280.32 803.84c-23.7056 0-42.9568-19.2512-42.9568-42.9568 0-33.0752 39.0144-52.9408 40.6528-53.76l2.5088-1.28 2.4064 1.4336c1.6384 0.9728 40.3456 24.5248 40.3456 53.6064 0 23.7056-19.2512 42.9568-42.9568 42.9568z m-0.1536-86.2208c-7.9872 4.6592-32.5632 20.7872-32.5632 43.264 0 18.0224 14.6944 32.7168 32.7168 32.7168s32.7168-14.6944 32.7168-32.7168c0-17.92-21.8112-35.9936-32.8704-43.264z" fill="#413D2C" p-id="38574"></path></svg>