<?xml version="1.0" standalone="no"?><!DOCTYPE svg PUBLIC "-//W3C//DTD SVG 1.1//EN" "http://www.w3.org/Graphics/SVG/1.1/DTD/svg11.dtd"><svg t="1776088323660" class="icon" viewBox="0 0 1024 1024" version="1.1" xmlns="http://www.w3.org/2000/svg" p-id="33200" xmlns:xlink="http://www.w3.org/1999/xlink" width="128" height="128"><path d="M512 512m-487.619048 0a487.619048 487.619048 0 1 0 975.238096 0 487.619048 487.619048 0 1 0-975.238096 0Z" fill="#25B8B8" p-id="33201"></path><path d="M484.888381 242.590476c-62.171429 16.481524-156.038095 33.54819-218.209524 41.447619l7.314286 71.289905c21.942857-2.438095 48.128-6.680381 75.580952-10.971429v48.176762H263.021714v74.361905h74.361905A918.869333 918.869333 0 0 1 236.202667 619.27619l45.689904 65.828572c23.79581-28.672 46.32381-64.609524 67.681524-101.814857v198.119619h71.92381V563.2c12.190476 17.65181 24.380952 35.352381 31.695238 49.347048l49.347047-43.25181c-16.432762-22.576762-45.104762-63.390476-59.733333-82.895238l-21.308952 15.213714v-34.718476h83.480381V392.533333H421.497905V331.580952c28.623238-6.729143 54.857143-11.605333 76.166095-17.066666l-12.775619-71.92381z" fill="#FFFFFF" p-id="33202"></path><path d="M586.654476 243.175619c-27.40419 142.628571-70.704762 305.39581-98.742857 393.801143-9.752381 34.718476-6.680381 38.375619-31.695238 49.93219l25.014857 72.557715c21.308952-4.87619 43.25181-7.899429 64.609524-10.386286 46.32381-6.680381 112.737524-14.628571 157.842286-19.504762l14.043428 45.738667 70.070857-29.257143c-24.380952-80.457143-65.828571-195.047619-95.085714-275.504762l-66.413714 23.747048c10.532571 29.647238 27.696762 79.481905 44.275809 130.925714l7.070476 22.040381 3.510858 11.02019c-42.081524 5.461333-90.843429 12.190476-124.342858 14.628572 29.842286-90.209524 74.947048-273.066667 104.204191-414.476191l-74.361905-15.262476z" fill="#FEFEFE" p-id="33203"></path></svg>