<?xml version="1.0" standalone="no"?><!DOCTYPE svg PUBLIC "-//W3C//DTD SVG 1.1//EN" "http://www.w3.org/Graphics/SVG/1.1/DTD/svg11.dtd"><svg t="1776046681744" class="icon" viewBox="0 0 1024 1024" version="1.1" xmlns="http://www.w3.org/2000/svg" p-id="51999" width="32" height="32" xmlns:xlink="http://www.w3.org/1999/xlink"><path d="M512 512m-512 0a512 512 0 1 0 1024 0 512 512 0 1 0-1024 0Z" fill="#FD9A65" p-id="52000"></path><path d="M1024 563.397683c-15.891768 163.110548-109.303104 303.784031-243.322564 385.482626-8.86017-29.411336-13.665853-60.928-13.665853-93.707861 0-160.246116 114.836263-290.321792 256.988417-291.774765z" fill="#FFFFFF" opacity=".3" p-id="52001"></path><path d="M338.03861 31.629344c-26.420386 134.399012-139.942054 228.015938-260.942085 211.639845C137.374147 146.285714 229.122965 70.962409 338.03861 31.629344z" fill="#FFFFFF" fill-opacity=".4" p-id="52002"></path><path d="M512.988417 512.988417m-232.277992 0a232.277992 232.277992 0 1 0 464.555984 0 232.277992 232.277992 0 1 0-464.555984 0Z" fill="#FFFFFF" p-id="52003"></path><path d="M559.995552 543.536432l74.356633-145.961513c1.702054-3.338873-1.761359-6.948571-5.167444-5.390826l-152.485065 69.811892a3.963552 3.963552 0 0 0-1.893807 1.836478l-81.708479 164.334209c-1.725776 3.47132 2.055907 7.094857 5.450131 5.220818l159.834935-88.184587c0.691892-0.381529 1.253313-0.960741 1.613096-1.666471z" fill="#FD9A65" p-id="52004"></path><path d="M513.976834 513.976834m-29.65251 0a29.65251 29.65251 0 1 0 59.30502 0 29.65251 29.65251 0 1 0-59.30502 0Z" fill="#FFFFFF" p-id="52005"></path></svg>